<svg role="img" version="1.1" id="Capa_1" xmlns="http://www.w3.org/2000/svg" xmlns:xlink="http://www.w3.org/1999/xlink" x="0px" y="0px"
	 viewBox="0 0 490 490" style="enable-background:new 0 0 490 490;" xml:space="preserve">
<g>
	<path d="M374.697,183.5v-70h-35.755V43.75H260V0h-30v43.75h-78.942v69.75h-35.755v70H2.5V490h485V183.5H374.697z M115.303,460H32.5
		V353.5h82.803V460z M115.303,323.5H32.5v-40h82.803V323.5z M115.303,253.5H32.5v-40h82.803V253.5z M181.058,73.75h127.885v39.75
		H181.058V73.75z M344.697,460H290v-71.5h-30V460h-30v-71.5h-30V460h-54.697V353.5h199.395V460z M344.697,323.5H145.303v-40h199.395
		V323.5z M344.697,253.5H145.303v-40h199.395V253.5z M344.697,183.5H145.303v-40h199.395V183.5z M457.5,460h-82.803V353.5H457.5V460
		z M457.5,323.5h-82.803v-40H457.5V323.5z M457.5,253.5h-82.803v-40H457.5V253.5z"/>
</g>
<g>
</g>
<g>
</g>
<g>
</g>
<g>
</g>
<g>
</g>
<g>
</g>
<g>
</g>
<g>
</g>
<g>
</g>
<g>
</g>
<g>
</g>
<g>
</g>
<g>
</g>
<g>
</g>
<g>
</g>
</svg>
