<?xml version="1.0" encoding="iso-8859-1"?>
<!-- Generator: Adobe Illustrator 19.0.0, SVG Export Plug-In . SVG Version: 6.00 Build 0)  -->
<svg version="1.1" id="Layer_1" xmlns="http://www.w3.org/2000/svg" xmlns:xlink="http://www.w3.org/1999/xlink" x="0px" y="0px"
	 viewBox="0 0 512 512" style="enable-background:new 0 0 512 512;" xml:space="preserve">
<g>
	<g>
		<path fill="rgb(63, 54, 137)" d="M500.364,442.182H81.455c-6.982,0-11.636,4.655-11.636,11.636s4.655,11.636,11.636,11.636h407.273v23.273H23.273v-23.273
			h11.636c6.982,0,11.636-4.655,11.636-11.636v-34.909h11.636h46.545h69.818h46.545h69.818h46.545h69.818h46.545h23.273
			c6.982,0,11.636-4.655,11.636-11.636c0-6.982-4.655-11.636-11.636-11.636h-11.636V221.091h11.636
			c6.982,0,11.636-4.655,11.636-11.636v-46.545v-23.273c0-4.655-3.491-9.309-8.145-10.473L396.8,97.745C375.855,40.727,320,0,256,0
			S136.145,40.727,115.2,97.745l-83.782,31.418c-4.655,1.164-8.145,5.818-8.145,10.473v23.273c0,6.982,4.655,11.636,11.636,11.636
			h395.636c6.982,0,11.636-4.655,11.636-11.636c0-6.982-4.655-11.636-11.636-11.636h-384v-3.491L256,70.982l209.455,76.8v15.127
			v34.909h-11.636h-46.545h-69.818h-46.545h-69.818h-46.545h-69.818H58.182H34.909c-6.982,0-11.636,4.655-11.636,11.636
			c0,6.982,4.655,11.636,11.636,11.636h11.636v174.545H34.909c-6.982,0-11.636,4.655-11.636,11.636v34.909H11.636
			C4.655,442.182,0,446.836,0,453.818v46.545C0,507.345,4.655,512,11.636,512h488.727c6.982,0,11.636-4.655,11.636-11.636v-46.545
			C512,446.836,507.345,442.182,500.364,442.182z M260.655,46.545c-3.491,0-5.818,0-8.145,1.164L146.618,87.273
			c20.945-38.4,62.836-64,109.382-64s88.436,25.6,110.545,62.836L260.655,46.545z M418.909,221.091h23.273v174.545h-23.273V221.091z
			 M349.091,221.091h46.545v174.545h-46.545V221.091z M302.545,221.091h23.273v174.545h-23.273V221.091z M232.727,221.091h46.545
			v174.545h-46.545V221.091z M186.182,221.091h23.273v174.545h-23.273V221.091z M116.364,221.091h46.545v174.545h-46.545V221.091z
			 M69.818,221.091h23.273v174.545H69.818V221.091z"/>
	</g>
</g>
<g>
	<g>
		<circle fill="rgb(63, 54, 137)" cx="256" cy="116.364" r="23.273"/>
	</g>
</g>
<g>
</g>
<g>
</g>
<g>
</g>
<g>
</g>
<g>
</g>
<g>
</g>
<g>
</g>
<g>
</g>
<g>
</g>
<g>
</g>
<g>
</g>
<g>
</g>
<g>
</g>
<g>
</g>
<g>
</g>
</svg>
