<svg
    role="img"
    width="13"
    height="24"
    viewBox="0 0 13 24"
    fill="none"
    xmlns="http://www.w3.org/2000/svg"
>
    <path
    d="M12.0252 0.237307L9.05681 0.232544C5.72194 0.232544 3.5668 2.44365 3.5668 5.86592V8.46328H0.582228C0.324325 8.46328 0.115479 8.67236 0.115479 8.93026V12.6935C0.115479 12.9514 0.324563 13.1603 0.582228 13.1603H3.5668V22.6562C3.5668 22.9142 3.77565 23.123 4.03355 23.123H7.92757C8.18547 23.123 8.39432 22.9139 8.39432 22.6562V13.1603H11.884C12.1419 13.1603 12.3507 12.9514 12.3507 12.6935L12.3522 8.93026C12.3522 8.80643 12.3029 8.68784 12.2155 8.60021C12.1281 8.51257 12.009 8.46328 11.8852 8.46328H8.39432V6.26146C8.39432 5.20318 8.6465 4.66594 10.0251 4.66594L12.0247 4.66523C12.2824 4.66523 12.4912 4.45614 12.4912 4.19848V0.704055C12.4912 0.446629 12.2826 0.237783 12.0252 0.237307Z"
    fill="white"
    />
</svg>