<svg role="img" version="1.1" id="Layer_1" xmlns="http://www.w3.org/2000/svg" xmlns:xlink="http://www.w3.org/1999/xlink" x="0px" y="0px"
	 viewBox="0 0 512 512" style="enable-background:new 0 0 512 512;" xml:space="preserve">
<g>
	<g>
		<g>
			<path d="M398.663,0H113.337c-10.695,0-19.366,8.671-19.366,19.366v473.267c0,10.695,8.671,19.366,19.366,19.366h285.326
				c10.695,0,19.366-8.671,19.366-19.366V19.366C418.03,8.671,409.359,0,398.663,0z M269.179,473.267h-26.358v-53.829h26.358
				V473.267z M379.297,473.267h-71.385v-73.196c0-10.695-8.671-19.366-19.366-19.366h-65.09c-10.695,0-19.366,8.671-19.366,19.366
				v73.196h-71.385V38.733h246.594V473.267z"/>
			<path d="M183.7,133.345c10.695,0,19.366-8.671,19.366-19.366V89.448c0-10.695-8.671-19.366-19.366-19.366
				s-19.366,8.671-19.366,19.366v24.531C164.333,124.674,173.004,133.345,183.7,133.345z"/>
			<path d="M256.001,133.345c10.695,0,19.366-8.671,19.366-19.366V89.448c0-10.695-8.671-19.366-19.366-19.366
				c-10.695,0-19.366,8.671-19.366,19.366v24.531C236.634,124.674,245.305,133.345,256.001,133.345z"/>
			<path d="M328.302,133.345c10.695,0,19.366-8.671,19.366-19.366V89.448c0-10.695-8.671-19.366-19.366-19.366
				c-10.695,0-19.366,8.671-19.366,19.366v24.531C308.935,124.674,317.606,133.345,328.302,133.345z"/>
			<path d="M183.7,228.885c10.695,0,19.366-8.671,19.366-19.366v-24.531c0-10.695-8.671-19.366-19.366-19.366
				s-19.366,8.671-19.366,19.366v24.531C164.333,220.214,173.004,228.885,183.7,228.885z"/>
			<path d="M256.001,228.885c10.695,0,19.366-8.671,19.366-19.366v-24.531c0-10.695-8.671-19.366-19.366-19.366
				c-10.695,0-19.366,8.671-19.366,19.366v24.531C236.634,220.214,245.305,228.885,256.001,228.885z"/>
			<path d="M328.302,228.885c10.695,0,19.366-8.671,19.366-19.366v-24.531c0-10.695-8.671-19.366-19.366-19.366
				c-10.695,0-19.366,8.671-19.366,19.366v24.531C308.935,220.214,317.606,228.885,328.302,228.885z"/>
			<path d="M183.7,324.426c10.695,0,19.366-8.671,19.366-19.366v-24.531c0-10.695-8.671-19.366-19.366-19.366
				s-19.366,8.671-19.366,19.366v24.531C164.333,315.755,173.004,324.426,183.7,324.426z"/>
			<path d="M256.001,324.426c10.695,0,19.366-8.671,19.366-19.366v-24.531c0-10.695-8.671-19.366-19.366-19.366
				c-10.695,0-19.366,8.671-19.366,19.366v24.531C236.634,315.755,245.305,324.426,256.001,324.426z"/>
			<path d="M328.302,324.426c10.695,0,19.366-8.671,19.366-19.366v-24.531c0-10.695-8.671-19.366-19.366-19.366
				c-10.695,0-19.366,8.671-19.366,19.366v24.531C308.935,315.755,317.606,324.426,328.302,324.426z"/>
		</g>
	</g>
</g>
<g>
</g>
<g>
</g>
<g>
</g>
<g>
</g>
<g>
</g>
<g>
</g>
<g>
</g>
<g>
</g>
<g>
</g>
<g>
</g>
<g>
</g>
<g>
</g>
<g>
</g>
<g>
</g>
<g>
</g>
</svg>
