<svg
    role="img"
    width="23"
    height="23"
    viewBox="0 0 23 23"
    fill="none"
    xmlns="http://www.w3.org/2000/svg"
>
    <path
    d="M16.0959 0.442627H6.40873C3.11902 0.442627 0.442627 3.11915 0.442627 6.40885V16.096C0.442627 19.3858 3.11902 22.0622 6.40873 22.0622H16.0959C19.3858 22.0622 22.0622 19.3857 22.0622 16.096V6.40885C22.0624 3.11915 19.3858 0.442627 16.0959 0.442627ZM20.1442 16.096C20.1442 18.3281 18.3281 20.144 16.096 20.144H6.40873C4.17671 20.1442 2.36082 18.3281 2.36082 16.096V6.40885C2.36082 4.17684 4.17671 2.36082 6.40873 2.36082H16.0959C18.328 2.36082 20.144 4.17684 20.144 6.40885V16.096H20.1442Z"
    fill="white"
    />
    <path
    d="M11.2525 5.68188C8.18067 5.68188 5.68164 8.18091 5.68164 11.2527C5.68164 14.3244 8.18067 16.8233 11.2525 16.8233C14.3243 16.8233 16.8233 14.3244 16.8233 11.2527C16.8233 8.18091 14.3243 5.68188 11.2525 5.68188ZM11.2525 14.905C9.23849 14.905 7.59984 13.2666 7.59984 11.2526C7.59984 9.23847 9.23836 7.59995 11.2525 7.59995C13.2666 7.59995 14.9051 9.23847 14.9051 11.2526C14.9051 13.2666 13.2664 14.905 11.2525 14.905Z"
    fill="white"
    />
    <path
    d="M17.0568 4.0553C16.6873 4.0553 16.3242 4.20492 16.0632 4.46707C15.8009 4.72795 15.6501 5.09112 15.6501 5.46198C15.6501 5.83168 15.801 6.19473 16.0632 6.45688C16.3241 6.71775 16.6873 6.86865 17.0568 6.86865C17.4277 6.86865 17.7896 6.71775 18.0517 6.45688C18.3139 6.19473 18.4635 5.83155 18.4635 5.46198C18.4635 5.09112 18.3139 4.72795 18.0517 4.46707C17.7909 4.20492 17.4277 4.0553 17.0568 4.0553Z"
    fill="white"
    />
</svg>