<svg role="img" version="1.1" id="Capa_1" xmlns="http://www.w3.org/2000/svg" xmlns:xlink="http://www.w3.org/1999/xlink" x="0px" y="0px"
	 viewBox="0 0 295.388 295.388" style="enable-background:new 0 0 295.388 295.388;" xml:space="preserve">
<g>
	<path d="M285.603,92.599L155.524,2.547c-4.915-3.402-11.425-3.395-16.332,0.019L9.764,92.614
		c-4.043,2.813-5.791,7.925-4.317,12.624c1.474,4.699,5.829,7.897,10.754,7.897h12.651v167.93c0,7.91,6.412,14.322,14.322,14.322
		h208.355c7.91,0,14.322-6.412,14.322-14.322v-167.93h13.337c4.93,0,9.288-3.204,10.758-7.91
		C291.415,100.52,289.656,95.405,285.603,92.599z M201.583,242.277c0,4.86-3.94,8.8-8.8,8.8h-90.178c-4.86,0-8.799-3.94-8.799-8.8
		v-72.625c0-4.86,3.94-8.799,8.799-8.799h4.767V143.33c0-22.233,18.088-40.322,40.321-40.322s40.322,18.089,40.322,40.322v17.523
		h4.768c4.86,0,8.8,3.94,8.8,8.799V242.277z"/>
	<path d="M147.693,124.836c-10.197,0-18.493,8.297-18.493,18.494v16.704h36.987V143.33
		C166.188,133.133,157.891,124.836,147.693,124.836z"/>
	<path d="M147.694,182.136c-7.636,0-13.825,6.189-13.825,13.825c0,4.405,2.067,8.319,5.276,10.851v14.433
		c0,4.722,3.827,8.549,8.549,8.549c4.721,0,8.549-3.827,8.549-8.549v-14.434c3.209-2.532,5.276-6.446,5.276-10.851
		C161.519,188.325,155.33,182.136,147.694,182.136z"/>
</g>
<g>
</g>
<g>
</g>
<g>
</g>
<g>
</g>
<g>
</g>
<g>
</g>
<g>
</g>
<g>
</g>
<g>
</g>
<g>
</g>
<g>
</g>
<g>
</g>
<g>
</g>
<g>
</g>
<g>
</g>
</svg>
