<svg role="img" version="1.1" id="Layer_1" xmlns="http://www.w3.org/2000/svg" xmlns:xlink="http://www.w3.org/1999/xlink" x="0px" y="0px"
	 viewBox="0 0 459.883 459.883" style="enable-background:new 0 0 459.883 459.883;" xml:space="preserve">
<g id="XMLID_162_">
	<g>
		<path d="M229.941,0c-68.677,0-124.55,55.873-124.55,124.55v280.638c0,30.159,24.536,54.695,54.696,54.695h139.709
			c30.16,0,54.696-24.536,54.696-54.695V124.55C354.491,55.873,298.618,0,229.941,0z M237.33,59.847
			c1.885-7.498,9.488-12.047,16.99-10.166c28.366,7.128,50.415,29.177,57.543,57.543c1.885,7.499-2.667,15.105-10.165,16.99
			c-1.145,0.288-2.293,0.426-3.422,0.426c-6.267,0-11.971-4.237-13.567-10.591c-4.61-18.344-18.869-32.603-37.212-37.211
			C239.998,74.952,235.446,67.346,237.33,59.847z M148.019,107.223c7.127-28.365,29.176-50.414,57.542-57.542
			c7.502-1.886,15.106,2.667,16.99,10.166c1.885,7.499-2.667,15.106-10.166,16.99c-18.344,4.609-32.602,18.868-37.212,37.211
			c-1.597,6.354-7.301,10.591-13.567,10.591c-1.13,0-2.277-0.138-3.422-0.426C150.685,122.329,146.134,114.722,148.019,107.223z
			 M218.783,391.5c0,5.523-4.477,10-10,10h-40.249c-5.523,0-10-4.477-10-10v-40.249c0-5.523,4.477-10,10-10h40.249
			c5.523,0,10,4.477,10,10V391.5z M218.783,309.835c0,5.523-4.477,10-10,10h-40.249c-5.523,0-10-4.477-10-10v-40.249
			c0-5.523,4.477-10,10-10h40.249c5.523,0,10,4.477,10,10V309.835z M222.551,203.363c-1.597,6.354-7.301,10.591-13.567,10.591
			c-1.13,0-2.277-0.138-3.422-0.426c-28.366-7.128-50.416-29.178-57.544-57.544c-1.885-7.499,2.667-15.106,10.165-16.99
			c7.502-1.884,15.106,2.668,16.99,10.166c4.609,18.344,18.868,32.603,37.212,37.213
			C219.884,188.257,224.435,195.864,222.551,203.363z M196.929,131.604c0-18.232,14.78-33.012,33.012-33.012
			s33.012,14.78,33.012,33.012s-14.78,33.012-33.012,33.012S196.929,149.836,196.929,131.604z M301.348,391.5
			c0,5.523-4.477,10-10,10h-40.249c-5.523,0-10-4.477-10-10v-40.249c0-5.523,4.477-10,10-10h40.249c5.523,0,10,4.477,10,10V391.5z
			 M301.348,309.835c0,5.523-4.477,10-10,10h-40.249c-5.523,0-10-4.478-10-10v-40.249c0-5.523,4.477-10,10-10h40.249
			c5.523,0,10,4.477,10,10V309.835z M311.865,155.984c-7.128,28.366-29.178,50.415-57.544,57.544
			c-1.145,0.288-2.293,0.426-3.422,0.426c-6.267,0-11.971-4.238-13.567-10.591c-1.885-7.499,2.667-15.105,10.166-16.99
			c18.344-4.61,32.602-18.869,37.212-37.213c1.885-7.499,9.491-12.052,16.99-10.166
			C309.197,140.878,313.749,148.485,311.865,155.984z"/>
	</g>
</g>
<g>
</g>
<g>
</g>
<g>
</g>
<g>
</g>
<g>
</g>
<g>
</g>
<g>
</g>
<g>
</g>
<g>
</g>
<g>
</g>
<g>
</g>
<g>
</g>
<g>
</g>
<g>
</g>
<g>
</g>
</svg>
