<?xml version="1.0" encoding="iso-8859-1"?>
<!-- Generator: Adobe Illustrator 18.0.0, SVG Export Plug-In . SVG Version: 6.00 Build 0)  -->
<!DOCTYPE svg PUBLIC "-//W3C//DTD SVG 1.1//EN" "http://www.w3.org/Graphics/SVG/1.1/DTD/svg11.dtd">
<svg version="1.1" id="Capa_1" xmlns="http://www.w3.org/2000/svg" xmlns:xlink="http://www.w3.org/1999/xlink" x="0px" y="0px"
	 viewBox="0 0 479.316 479.316" style="enable-background:new 0 0 479.316 479.316;" xml:space="preserve">
<path fill="rgb(63, 54, 137)" d="M471.816,368.906h-27v-94.5h27c4.142,0,7.5-3.358,7.5-7.5s-3.358-7.5-7.5-7.5h-34.5c-4.142,0-7.5,3.358-7.5,7.5v34.504
	H311.631v-4.557l18.664-4.291c4.037-0.928,6.557-4.953,5.628-8.99l-6.05-26.314l36.544-8.403c1.938-0.445,3.621-1.643,4.676-3.329
	s1.398-3.722,0.952-5.661l-14.117-61.396l4.385-1.008c1.938-0.446,3.621-1.643,4.676-3.329s1.398-3.722,0.952-5.661l-15.461-67.242
	c-0.928-4.037-4.954-6.556-8.99-5.629L5.819,173.244c-1.938,0.445-3.621,1.643-4.676,3.329s-1.398,3.722-0.952,5.661
	c4.785,20.809,17.691,37.675,34.597,48.04l-11.468,2.637c-4.037,0.928-6.557,4.953-5.628,8.99l8.481,36.887
	c0.445,1.938,1.643,3.621,3.329,4.676c1.203,0.753,2.583,1.143,3.98,1.143c0.562,0,1.125-0.063,1.681-0.191l21.258-4.888
	l7.187,31.258c0.798,3.471,3.886,5.821,7.302,5.821c0.557,0,1.122-0.062,1.688-0.192l135.941-31.258l6.05,26.314
	c0.445,1.938,1.643,3.621,3.329,4.676c1.203,0.753,2.583,1.143,3.98,1.143c0.561,0,1.125-0.063,1.681-0.191l13.052-3.001v38.299
	c0,4.142,3.358,7.5,7.5,7.5h60c4.142,0,7.5-3.358,7.5-7.5v-8.987h118.185v32.996c0,4.142,3.358,7.5,7.5,7.5h34.5
	c4.142,0,7.5-3.358,7.5-7.5S475.958,368.906,471.816,368.906z M16.928,186.081l322.614-74.18l12.1,52.624l-263.12,60.5
	c-16.009,3.681-32.493,0.907-46.415-7.81C30.326,209.839,21.573,198.955,16.928,186.081z M53.06,264.91l-13.949,3.208l-5.12-22.269
	l13.949-3.208l3.291,14.312L53.06,264.91z M67.056,258.843l-4.183-18.194c3.891,0.616,7.853,0.948,11.862,0.948
	c5.658,0,11.406-0.634,17.149-1.955l251.426-57.811l12.437,54.087l-279.2,64.198L67.056,258.843z M223.158,281.796l92.097-21.176
	l4.37,19.005l-92.097,21.176L223.158,281.796z M251.631,344.898v-34.248l45-10.347v44.595H251.631z M311.631,328.41v-12h118.185v12
	H311.631z"/>
<g>
</g>
<g>
</g>
<g>
</g>
<g>
</g>
<g>
</g>
<g>
</g>
<g>
</g>
<g>
</g>
<g>
</g>
<g>
</g>
<g>
</g>
<g>
</g>
<g>
</g>
<g>
</g>
<g>
</g>
</svg>
