 <svg
    role="img"
    width="29"
    height="29"
    viewBox="0 0 29 29"
    fill="none"
    xmlns="http://www.w3.org/2000/svg"
>
    <path
    d="M27.8697 6.04738C26.8228 4.803 24.8901 4.29541 21.1991 4.29541H7.80063C4.02511 4.29541 2.05965 4.83575 1.01678 6.16058C0 7.45229 0 9.35554 0 11.9897V17.0103C0 22.1135 1.2064 24.7045 7.80063 24.7045H21.1992C24.4 24.7045 26.1737 24.2566 27.3212 23.1584C28.4979 22.0323 29 20.1936 29 17.0103V11.9897C29 9.21175 28.9213 7.29728 27.8697 6.04738ZM18.6181 15.1931L12.5339 18.3729C12.3979 18.444 12.2491 18.4793 12.1006 18.4793C11.9324 18.4793 11.7646 18.434 11.6159 18.344C11.336 18.1744 11.1651 17.8711 11.1651 17.5438V11.2046C11.1651 10.8779 11.3355 10.5748 11.6149 10.4051C11.8943 10.2355 12.2418 10.2239 12.5317 10.3745L18.6159 13.5338C18.9255 13.6945 19.1199 14.0141 19.1204 14.3627C19.1207 14.7116 18.9272 15.0317 18.6181 15.1931Z"
    fill="white"
    />
</svg>